{"title":"Ted 2 2015 WEB-DL READNFO XVID-VAiN","uid":12108827,"size":1556454537,"categoryP":"video","categoryS":"movies","magnet":"?xt=urn:btih:b76615636193ba97085a6bf0a59a950a4541ee66&amp;dn=Ted+2+2015+WEB-DL+READNFO+XVID-VAiN&amp;tr=udp%3A%2F%2Ftracker.openbittorrent.com%3A80&amp;tr=udp%3A%2F%2Fopen.demonii.com%3A1337&amp;tr=udp%3A%2F%2Ftracker.coppersurfer.tk%3A6969&amp;tr=udp%3A%2F%2Fexodus.desync.com%3A6969","seeders":21,"leechers":5,"uploader":"makintos13","files":3,"time":1436507065,"description":"screens:\n &lt;a href=&quot;\nhttp://imgmak.com/YO&quot; rel=&quot;nofollow&quot; target=&quot;_NEW&quot;&gt;\nhttp://imgmak.com/YO&lt;/a&gt;\n &lt;a href=&quot;\nhttp://imgmak.com/YP&quot; rel=&quot;nofollow&quot; target=&quot;_NEW&quot;&gt;\nhttp://imgmak.com/YP&lt;/a&gt;\n &lt;a href=&quot;\nhttp://imgmak.com/YY&quot; rel=&quot;nofollow&quot; target=&quot;_NEW&quot;&gt;\nhttp://imgmak.com/YY&lt;/a&gt;\n &lt;a href=&quot;\nhttp://imgmak.com/Y0&quot; rel=&quot;nofollow&quot; target=&quot;_NEW&quot;&gt;\nhttp://imgmak.com/Y0&lt;/a&gt;\n &lt;a href=&quot;\nhttp://imgmak.com/YA&quot; rel=&quot;nofollow&quot; target=&quot;_NEW&quot;&gt;\nhttp://imgmak.com/YA&lt;/a&gt;\n\n:::\n\nTed.2.2015.WEB-DL.READNFO.XVID-VAiN\n\niMDB........: http://www.imdb.com/title/tt2637276/\n\nPLOT........: Newlywed couple Ted and Tami-Lynn want to have a baby, but in order to qualify to be a parent, Ted will have to prove he's a person in a court of law.\n\nT E C H N i C A L . i N F O . . .\n\nBasic Information\nFormat                                   : AVI\nFormat/Info                              : Audio Video Interleave\nFile size                                : 1.44 GiB\nDuration                                 : 1h 54mn\nOverall bit rate                         : 1 790 Kbps\nWriting application                      : VirtualDubMod 1.5.10.2 (build 2540/release)\nWriting library                          : VirtualDubMod build 2540/release\n\nVideo\nID                                       : 0\nFormat                                   : MPEG-4 Visual\nFormat profile                           : Advanced Simple@L5\nFormat settings, BVOP                    : 2\nFormat settings, QPel                    : No\nFormat settings, GMC                     : No warppoints\nFormat settings, Matrix                  : Default (MPEG)\nMuxing mode                              : Packed bitstream\nCodec ID                                 : XVID\nCodec ID/Hint                            : XviD\nDuration                                 : 1h 54mn\nBit rate                                 : 1 652 Kbps\nWidth                                    : 720 pixels\nHeight                                   : 288 pixels\nDisplay aspect ratio                     : 2.500\nFrame rate                               : 25.000 fps\nColor space                              : YUV\nChroma subsampling                       : 4:2:0\nBit depth                                : 8 bits\nScan type                                : Progressive\nCompression mode                         : Lossy\nBits/(Pixel*Frame)                       : 0.319\nStream size                              : 1.33 GiB (92%)\nWriting library                          : XviD 66\n\nAudio\nID                                       : 1\nFormat                                   : MPEG Audio\nFormat version                           : Version 1\nFormat profile                           : Layer 3\nMode                                     : Joint stereo\nMode extension                           : MS Stereo\nCodec ID                                 : 55\nCodec ID/Hint                            : MP3\nDuration                                 : 1h 54mn\nBit rate mode                            : Constant\nBit rate                                 : 128 Kbps\nChannel(s)                               : 2 channels\nSampling rate                            : 48.0 KHz\nCompression mode                         : Lossy\nDelay relative to video                  : 8ms\nStream size                              : 105 MiB (7%)\nAlignment                                : Split accross interleaves\nInterleave, duration                     : 40 ms (1.00 video frame)\nInterleave, preload duration             : 504 ms\n\n\n\nE N C O D E R S . N O T E S . . .       \n\nSOURCE......: ViDEO...Ted2.2015.DVD.X264.AAC.English.CHS.Mp4Ba\n............: AUDiO...Ted2.2015.DVD.X264.AAC.English.CHS.Mp4Ba\nSAMPLE......: Yippers \nADDED NOTE..: video needed a lil work, resized, added some non magical filters &amp; BOOM!!! audio was ok but needed some work...  \n\n*READNFO* forein subs through out audio was mono ran via AA via some filters and made stero (of sorts) either way great copy  for it is.. also labeled it a WEB-DL simply cuz that's where i got the source. can't prove its from dvd as orginal release was tagged... also may have some censorship to it?!?! dunno as never seen it b4 leave comments if u know... \n\nenjoy or don't... just puff puff give give","torrent":{"xt":"urn:btih:b76615636193ba97085a6bf0a59a950a4541ee66","amp;dn":"Ted+2+2015+WEB-DL+READNFO+XVID-VAiN","amp;tr":["udp%3A%2F%2Ftracker.openbittorrent.com%3A80","udp%3A%2F%2Fopen.demonii.com%3A1337","udp%3A%2F%2Ftracker.coppersurfer.tk%3A6969","udp%3A%2F%2Fexodus.desync.com%3A6969"],"infoHash":"b76615636193ba97085a6bf0a59a950a4541ee66","infoHashBuffer":{"type":"Buffer","data":[183,102,21,99,97,147,186,151,8,90,107,240,165,154,149,10,69,65,238,102]},"announce":[],"urlList":[]}}